# Blender 5.0.0
# www.blender.org
mtllib puffcloud.mtl
o Mball.004
v 1.470151 1.109077 -0.638637
v 1.719029 1.109077 -0.395419
v 1.646730 1.552708 -0.395419
v 1.470151 1.552708 -0.548400
v 1.470151 0.665447 -0.800139
v 1.629387 0.665447 -0.395419
v 1.712625 0.665447 0.048212
v 1.899667 1.109077 0.048212
v 1.636006 0.665447 0.491843
v 1.834413 1.109077 0.491843
v 1.470151 0.471798 0.491843
v 1.470151 0.315288 0.048212
v 1.414158 0.221815 0.048212
v 1.242038 0.221815 0.491843
v 1.026520 -0.203349 0.491843
v 1.204878 -0.221816 0.048212
v 1.026520 -0.221816 0.360071
v 1.026520 -0.474029 0.048212
v 1.470151 -0.221816 -0.275769
v 1.470151 0.221815 -0.075571
v 1.585266 0.221815 -0.395419
v 1.541515 -0.221816 -0.395419
v 1.470151 -0.383933 -0.395419
v 1.626635 -0.221816 -0.839050
v 1.470151 -0.531323 -0.839050
v 1.470151 -0.221816 -1.265402
v 1.632083 0.221815 -0.839050
v 1.470151 0.221815 -1.275006
v 1.464839 0.221815 -1.282681
v 1.458194 -0.221816 -1.282681
v 1.470151 0.627055 -0.839050
v 1.449952 0.665447 -0.839050
v 1.076513 0.665447 -1.282681
v 1.026520 -0.221816 -1.588824
v 1.026520 0.221815 -1.594307
v 0.582889 -0.221816 -1.605593
v 0.582889 0.221815 -1.610898
v 1.341363 -0.665446 -0.839050
v 1.204877 -0.665446 -0.395419
v 1.026520 -0.221816 0.513185
v 1.154186 -0.221816 0.935474
v 1.195416 0.221815 0.935474
v 1.026520 -0.588028 0.935474
v 1.026520 -0.588028 1.379105
v 1.154186 -0.221816 1.379105
v 1.154186 0.221815 1.379105
v 1.026520 0.614208 1.379105
v 1.026520 0.665447 1.337406
v 1.333895 0.665447 0.935474
v 1.026520 1.109077 1.162437
v 1.450295 1.109077 0.935474
v 1.470151 0.665447 0.766586
v 1.470151 1.109077 0.921759
v 0.582889 1.099170 1.379105
v 0.582889 1.109077 1.365596
v 1.002874 0.665447 1.379105
v 0.560980 1.109077 1.379105
v 0.139258 1.238472 1.379105
v 0.139258 1.449258 0.935474
v 0.582889 1.552372 0.935474
v 0.139258 1.109077 1.745318
v -0.304373 1.259832 1.379105
v -0.304373 1.109077 1.745318
v -0.304373 1.065589 1.822736
v 0.139258 1.065589 1.822736
v 0.139258 0.665447 2.222878
v -0.304373 0.665447 2.222878
v -0.304373 0.588028 2.266367
v 0.139258 0.588028 2.266367
v 0.139258 0.221815 2.394032
v -0.304373 0.221815 2.394032
v -0.304373 -0.221816 2.394032
v 0.139258 -0.221816 2.394032
v -0.304373 -0.588028 2.266367
v 0.139258 -0.588028 2.266367
v 0.139258 -0.665446 2.222878
v -0.304373 -0.665446 2.222878
v -0.304373 -1.065589 1.822736
v 0.139258 -1.065589 1.822736
v 0.139258 -1.109077 1.745318
v -0.304373 -1.109077 1.745318
v -0.304373 -1.236743 1.379105
v 0.139258 -1.236743 1.379105
v 0.139258 -1.236743 0.935474
v -0.304373 -1.236743 0.935474
v 0.139258 -1.109077 0.569261
v -0.304373 -1.109077 0.569261
v -0.304373 -1.065589 0.491843
v 0.139258 -1.065589 0.491843
v 0.139258 -0.701628 0.048212
v -0.060103 -0.665446 0.048212
v -0.304373 -0.665446 0.091650
v -0.304373 -0.591801 0.048212
v 0.139258 -0.665446 -0.028863
v 0.582889 -0.860586 0.491843
v 0.582889 -0.691048 0.048212
v -0.748004 -0.860511 0.491843
v -0.748004 -0.665446 0.296778
v -0.943069 -0.665446 0.491843
v -0.748004 -0.325203 0.048212
v -0.876642 -0.221816 0.048212
v -1.173018 -0.221816 0.491843
v -1.191635 -0.176415 0.491843
v -1.191635 0.065955 0.048212
v -0.748004 -0.221816 -0.054645
v -0.748004 0.013442 -0.395419
v -1.191635 0.187466 -0.395419
v -0.748004 0.221815 -0.799707
v -1.191635 0.221815 -0.514933
v -1.191635 0.354266 -0.839050
v -0.748004 0.242861 -0.839050
v -0.748004 0.660960 -1.282681
v -0.786465 0.665447 -1.282681
v -1.191635 0.665447 -1.171191
v -1.191635 0.876793 -1.282681
v -0.748004 0.665447 -1.285593
v -0.748004 1.109077 -1.442911
v -1.191635 1.109077 -1.345465
v -0.748004 1.552708 -1.414848
v -1.191635 1.552708 -1.315096
v -1.191635 1.644090 -1.282681
v -0.748004 1.860053 -1.282681
v -0.748004 1.996340 -1.185924
v -1.191635 1.996340 -1.056368
v -1.191635 2.167725 -0.839050
v -0.748004 2.278301 -0.839050
v -1.191635 2.310841 -0.395419
v -0.748004 2.407867 -0.395419
v -1.191635 2.255382 0.048212
v -0.748004 2.356965 0.048212
v -0.748004 2.092666 0.491843
v -1.117447 1.996340 0.491843
v -1.191635 1.996339 0.452256
v -1.191635 1.953148 0.491843
v -0.748004 1.996340 0.582046
v -0.748004 1.552708 0.905247
v -1.191635 1.552708 0.727162
v -0.342492 1.996340 0.491843
v -0.304373 1.977951 0.491843
v -0.304373 1.552708 0.905700
v -0.748004 1.512761 0.935474
v -0.304373 1.527172 0.935474
v 0.139258 1.552709 0.814176
v -0.304373 1.996340 0.473246
v 0.139258 1.828678 0.491843
v -1.510133 1.552708 0.491843
v -1.191635 1.109077 0.920300
v -1.567614 1.109077 0.491843
v -1.191635 1.075477 0.935474
v -1.306363 0.665447 0.935474
v -1.490352 0.665447 0.491843
v -1.635265 0.665447 0.112957
v -1.635265 1.109077 0.398241
v -1.657453 0.665447 0.048212
v -1.816778 1.109077 0.048212
v -1.787765 1.552708 0.048212
v -1.635265 1.552708 0.344993
v -1.635265 1.878804 0.048212
v -1.839965 1.552708 -0.395419
v -1.635266 1.964640 -0.395419
v -1.705635 1.552708 -0.839050
v -1.635265 1.723672 -0.839050
v -1.635265 1.552708 -0.949685
v -1.635265 1.109077 -0.995416
v -1.736644 1.109077 -0.839050
v -1.635265 0.797327 -0.839050
v -1.867574 1.109077 -0.395419
v -1.710903 0.665447 -0.395419
v -1.635265 0.665447 -0.686519
v -1.635265 0.556667 -0.395419
v -1.635265 0.629553 0.048212
v -1.335132 0.221815 0.048212
v -1.247832 0.221815 -0.395419
v -1.555342 0.665447 -0.839050
v -1.610218 1.996340 -0.395419
v -1.542827 1.996340 0.048212
v -1.191635 0.665447 1.260797
v -1.191635 0.594931 1.379105
v -1.319300 0.221815 1.379105
v -1.344226 0.221815 0.935474
v -1.319300 -0.221816 1.379105
v -1.319300 -0.221816 0.935474
v -1.191635 -0.588028 1.379105
v -1.191635 -0.588028 0.935474
v -1.191635 -0.221816 0.535050
v -1.191635 -0.221816 1.745318
v -1.148146 -0.221816 1.822736
v -0.943069 -0.665446 1.822736
v -1.148146 -0.665446 1.379105
v -1.191635 0.221815 1.745318
v -1.148146 0.221815 1.822736
v -1.155161 0.665447 1.379105
v -0.943069 0.665447 1.822736
v -0.748004 0.860512 1.822736
v -0.748004 1.106282 1.379105
v -0.748004 0.665447 2.017801
v -0.748004 -0.221816 2.222878
v -0.748004 0.221815 2.222878
v -0.670585 0.221815 2.266367
v -0.670585 -0.221816 2.266367
v -0.748004 -0.860511 1.822736
v -0.748004 -1.065589 1.379105
v -0.748004 -1.065589 0.935474
v -1.148146 -0.665446 0.935474
v -0.670585 -1.109077 1.379105
v -0.670585 -1.109077 0.935474
v -0.748004 -0.665446 2.017801
v -1.346808 0.221815 0.491843
v -1.176330 1.109077 0.935474
v -0.748004 1.109077 1.374747
v -0.743169 1.109077 1.379105
v -0.304373 2.270447 0.048212
v 0.139258 2.048345 0.048212
v 0.139258 1.996339 0.204345
v 0.582889 2.053879 0.048212
v 0.582889 1.996340 0.376065
v 0.582889 1.944546 0.491843
v 0.748428 1.996339 0.491843
v 1.026520 1.996340 0.581124
v 1.026520 1.641866 0.935474
v 0.583881 1.552708 0.935474
v 0.582889 1.552708 0.935201
v 1.026520 2.042351 0.491843
v 1.288080 1.996339 0.491843
v 1.026520 2.106233 0.048212
v 1.450670 1.996340 0.048212
v 1.470151 1.909950 0.491843
v 1.470151 1.986220 0.048212
v 1.026520 1.929795 -0.395419
v 1.470151 1.768642 -0.395419
v 1.026520 1.996340 -0.292557
v 0.582889 1.923395 -0.395419
v 0.582889 1.996339 -0.241294
v 0.582889 1.552708 -0.720504
v 1.026520 1.552708 -0.684417
v 0.582889 1.229484 -0.839050
v 1.026520 1.117884 -0.839050
v 0.297056 1.552708 -0.839050
v 0.139258 1.109077 -1.083102
v 0.582889 1.109077 -0.903622
v 0.139258 1.552708 -0.995976
v 0.139258 1.791615 -0.839050
v 0.139258 0.665447 -1.240239
v 0.303271 0.665447 -1.282681
v 0.582889 0.731140 -1.282681
v 0.582889 0.665447 -1.350653
v 0.139258 0.556158 -1.282681
v 0.139258 0.221815 -1.378015
v 1.026520 0.688516 -1.282681
v 1.026520 1.109077 -0.843581
v -0.304373 0.834210 -1.282681
v -0.304373 0.665447 -1.214636
v -0.151094 1.109077 -1.282681
v -0.304373 0.221815 -0.961335
v 0.027073 0.221815 -1.282681
v -0.304373 1.109077 -1.359633
v -0.207310 1.552708 -1.282681
v -0.304373 1.552708 -1.329938
v -0.304373 1.681761 -1.282681
v -0.676027 0.665447 -1.282681
v 0.228402 1.996340 -0.395419
v 1.844994 1.552708 0.048212
v 1.773642 1.552708 0.491843
v 1.026520 1.552708 0.988119
v 1.264879 1.552708 0.935474
v 0.139258 2.044479 -0.395419
v -0.304373 2.324705 -0.395419
v -1.432913 1.996340 -0.839050
v -0.304373 1.996340 -1.076040
v -0.304373 2.184074 -0.839050
v -0.029614 1.996340 -0.839050
v 0.139258 1.996340 -0.538111
v -1.253992 1.552708 -1.282681
v -1.311579 1.109077 -1.282681
v -0.492557 0.221815 -0.839050
v -0.304373 -0.221816 -0.280660
v -0.304373 -0.153529 -0.395419
v -0.232772 -0.221816 -0.395419
v -0.110999 -0.221816 -0.839050
v -0.304373 0.105070 -0.839050
v 0.139258 -0.614032 -0.395419
v 0.139258 -0.607210 -0.839050
v 0.215423 -0.665446 -0.395419
v 0.203109 -0.665446 -0.839050
v 0.582889 -0.798347 -0.395419
v 0.582889 -0.853743 -0.839050
v 0.582889 -0.688496 -1.282681
v 0.518675 -0.665446 -1.282681
v 0.582889 -0.665446 -1.311742
v 0.139258 -0.339141 -1.282681
v 0.139258 -0.221816 -1.345419
v 1.026520 -0.667430 -1.282681
v 1.026520 -0.665446 -1.285181
v 1.030936 -0.665446 -1.282681
v 1.026520 -0.837317 -0.839050
v 1.026520 -0.754804 -0.395419
v 0.681147 -0.665446 0.048212
v 1.026520 -0.665446 -0.222533
v 0.505471 -1.109077 0.935474
v 0.582889 -1.065589 0.935474
v 0.582889 -1.065589 1.379105
v 0.505471 -1.109077 1.379105
v 0.983032 -0.665446 1.379105
v 0.983032 -0.665446 0.935474
v 0.582889 -0.860511 1.822736
v 0.777954 -0.665446 1.822736
v 0.582889 -0.665446 2.017801
v 0.582889 -0.221816 2.222878
v 0.983032 -0.221816 1.822736
v 0.582889 0.221815 2.222878
v 0.983032 0.221815 1.822736
v 0.582889 0.665447 2.017801
v 0.777954 0.665447 1.822736
v 0.582889 0.860512 1.822736
v 1.026520 -0.221816 1.745318
v 1.026520 0.221815 1.745318
v 0.505471 -0.221816 2.266367
v 0.505471 0.221815 2.266367
v 0.783216 -0.665446 0.491843
v 1.020895 -0.221816 0.491843
v 1.042802 1.109077 -0.839050
v 1.470151 1.552708 0.839272
v 0.086596 -0.221816 -1.282681
v 1.026520 0.665447 -1.310965
vn 0.6234 0.1683 -0.7636
vn 0.8728 -0.0091 -0.4880
vn 0.7684 0.3525 -0.5341
vn 0.4656 0.3690 -0.8044
vn 0.7670 0.3086 -0.5625
vn 0.9647 -0.1215 -0.2337
vn 0.9119 -0.4096 0.0239
vn 0.9898 -0.1075 -0.0935
vn 0.8164 -0.4659 0.3413
vn 0.9147 -0.1117 0.3885
vn 0.7743 -0.5682 0.2785
vn 0.8333 -0.5092 0.2153
vn 0.7986 -0.4615 0.3862
vn 0.8426 -0.4790 0.2462
vn 0.9345 -0.3559 0.0072
vn 0.7573 -0.4472 0.4759
vn 0.7650 -0.6231 0.1628
vn 0.6688 -0.6274 0.3990
vn 0.8035 -0.3155 0.5049
vn 0.8461 -0.3390 0.4114
vn 0.9859 -0.1053 0.1298
vn 0.9237 -0.2469 0.2929
vn 0.7726 -0.5235 0.3592
vn 0.9678 -0.2346 -0.0910
vn 0.7945 -0.5976 -0.1082
vn 0.8335 -0.3029 -0.4621
vn 0.9806 0.1039 -0.1663
vn 0.8499 0.2380 -0.4701
vn 0.6951 0.2543 -0.6724
vn 0.6915 -0.3021 -0.6562
vn 0.8390 0.3920 -0.3775
vn 0.6270 0.4818 -0.6122
vn 0.5549 0.5558 -0.6190
vn 0.3000 -0.2754 -0.9133
vn 0.3037 0.2461 -0.9204
vn -0.2130 -0.2804 -0.9360
vn -0.1892 0.2221 -0.9565
vn 0.6281 -0.7703 -0.1101
vn 0.5669 -0.7532 0.3336
vn 0.9083 -0.2780 -0.3126
vn 0.9716 -0.1993 -0.1277
vn 0.9683 -0.1936 0.1579
vn 0.8928 -0.4165 -0.1715
vn 0.8964 -0.4008 0.1893
vn 0.9694 -0.1736 0.1736
vn 0.9704 0.1402 0.1965
vn 0.8805 0.2252 0.4172
vn 0.7522 0.1886 0.6314
vn 0.7768 -0.2266 0.5876
vn 0.4107 0.3211 0.8534
vn 0.5766 0.0583 0.8150
vn 0.7044 -0.4550 0.5448
vn 0.6922 -0.0466 0.7202
vn 0.4606 0.6567 0.5971
vn 0.2909 0.6593 0.6934
vn 0.7514 0.5207 0.4052
vn 0.3213 0.8395 0.4382
vn 0.1060 0.8885 0.4465
vn 0.0263 0.8061 0.5913
vn -0.0674 0.6749 0.7348
vn 0.1850 0.8863 0.4246
vn -0.0809 0.8834 0.4617
vn -0.1732 0.8847 0.4329
vn -0.1755 0.7906 0.5867
vn 0.1780 0.7921 0.5839
vn 0.1826 0.5718 0.7998
vn -0.1826 0.5718 0.7998
vn -0.1893 0.4008 0.8964
vn 0.1893 0.4008 0.8964
vn 0.1621 0.1621 0.9734
vn -0.1621 0.1621 0.9734
vn -0.1621 -0.1621 0.9734
vn 0.1621 -0.1621 0.9734
vn -0.1858 -0.4108 0.8926
vn 0.1858 -0.4108 0.8926
vn 0.1755 -0.5867 0.7906
vn -0.1755 -0.5867 0.7906
vn -0.1815 -0.7984 0.5741
vn 0.1886 -0.7942 0.5777
vn 0.2058 -0.8847 0.4182
vn -0.1872 -0.8958 0.4031
vn -0.1621 -0.9734 0.1621
vn 0.1621 -0.9734 0.1621
vn 0.1621 -0.9734 -0.1621
vn -0.1621 -0.9734 -0.1621
vn 0.2058 -0.8847 -0.4182
vn -0.2058 -0.8847 -0.4182
vn -0.2037 -0.7994 -0.5652
vn 0.1540 -0.8364 -0.5261
vn -0.0914 -0.9046 -0.4163
vn -0.1397 -0.8629 -0.4857
vn -0.2332 -0.6088 -0.7582
vn -0.3521 -0.6301 -0.6921
vn -0.5710 -0.7778 -0.2628
vn 0.4736 -0.7996 -0.3693
vn 0.2358 -0.9678 -0.0878
vn -0.4960 -0.7127 -0.4960
vn -0.4712 -0.5696 -0.6734
vn -0.6990 -0.5447 -0.4635
vn -0.4963 -0.5612 -0.6623
vn -0.6114 -0.5919 -0.5252
vn -0.7667 -0.4826 -0.4235
vn -0.8539 -0.4378 -0.2814
vn -0.6922 -0.6676 -0.2744
vn -0.4381 -0.6758 -0.5927
vn -0.3406 -0.8200 -0.4600
vn -0.4713 -0.8401 -0.2686
vn -0.1644 -0.8892 -0.4269
vn -0.4473 -0.8244 -0.3467
vn -0.4004 -0.7742 -0.4903
vn -0.1492 -0.8035 -0.5764
vn -0.0241 -0.6467 -0.7624
vn -0.1767 -0.5366 -0.8252
vn -0.4050 -0.5503 -0.7301
vn -0.4061 -0.3501 -0.8441
vn -0.0129 -0.4297 -0.9029
vn -0.0080 -0.1271 -0.9919
vn -0.3368 -0.0919 -0.9371
vn -0.0154 0.2216 -0.9750
vn -0.3307 0.2028 -0.9217
vn -0.3925 0.4291 -0.8136
vn -0.0182 0.4898 -0.8716
vn -0.0171 0.6624 -0.7489
vn -0.3909 0.6142 -0.6856
vn -0.3750 0.8218 -0.4289
vn -0.0146 0.8893 -0.4570
vn -0.4066 0.9100 -0.0808
vn -0.0155 0.9961 -0.0867
vn -0.3950 0.8680 0.3008
vn -0.0130 0.9473 0.3201
vn -0.0090 0.7830 0.6220
vn -0.2421 0.6983 0.6736
vn -0.4671 0.6743 0.5720
vn -0.4624 0.5422 0.7016
vn -0.0122 0.6285 0.7777
vn -0.1493 0.5693 0.8085
vn -0.4881 0.3743 0.7884
vn 0.2139 0.7373 0.6408
vn 0.2277 0.7147 0.6613
vn 0.0767 0.7138 0.6961
vn -0.2712 0.6209 0.7355
vn 0.0194 0.7815 0.6236
vn -0.0083 0.7488 0.6628
vn 0.2766 0.8033 0.5275
vn 0.0210 0.8003 0.5992
vn -0.6829 0.3182 0.6575
vn -0.6372 0.3429 0.6902
vn -0.8164 0.0265 0.5769
vn -0.7625 0.2912 0.5777
vn -0.9415 0.1022 0.3213
vn -0.9146 -0.1527 0.3744
vn -0.8793 -0.3064 0.3647
vn -0.8700 -0.0817 0.4863
vn -0.8744 -0.4261 0.2322
vn -0.9516 -0.1279 0.2796
vn -0.9311 0.2382 0.2763
vn -0.7930 0.2767 0.5428
vn -0.7969 0.5125 0.3198
vn -0.9658 0.2462 -0.0816
vn -0.8393 0.5363 -0.0893
vn -0.8903 0.2200 -0.3987
vn -0.7638 0.4539 -0.4589
vn -0.7296 0.2324 -0.6432
vn -0.7428 -0.1214 -0.6585
vn -0.9063 -0.1160 -0.4065
vn -0.7951 -0.3580 -0.4896
vn -0.9880 -0.1316 -0.0812
vn -0.8942 -0.4427 -0.0662
vn -0.7973 -0.5286 -0.2914
vn -0.7494 -0.6524 -0.1125
vn -0.8303 -0.5399 0.1378
vn -0.7813 -0.6185 -0.0837
vn -0.6486 -0.7379 -0.1864
vn -0.6589 -0.5603 -0.5018
vn -0.7100 0.6988 -0.0872
vn -0.6680 0.6709 0.3221
vn -0.7956 0.4676 0.3853
vn -0.8873 0.3492 0.3012
vn -0.9703 0.1179 0.2114
vn -0.9971 -0.0398 0.0646
vn -0.9710 -0.1691 0.1691
vn -0.9694 -0.2230 -0.1030
vn -0.8926 -0.4108 0.1858
vn -0.8937 -0.4110 -0.1797
vn -0.8816 -0.3379 -0.3296
vn -0.8958 -0.1872 0.4031
vn -0.7984 -0.1815 0.5741
vn -0.7090 -0.4985 0.4988
vn -0.7906 -0.5867 0.1755
vn -0.8854 0.2023 0.4184
vn -0.7939 0.1866 0.5787
vn -0.7682 0.4983 0.4019
vn -0.7111 0.4869 0.5072
vn -0.4975 0.6958 0.5181
vn -0.5538 0.6699 0.4945
vn -0.4976 0.4976 0.7104
vn -0.5741 -0.1815 0.7984
vn -0.5777 0.1886 0.7942
vn -0.4182 0.2058 0.8847
vn -0.4031 -0.1872 0.8958
vn -0.4985 -0.7090 0.4988
vn -0.5867 -0.7906 0.1755
vn -0.5774 -0.7945 -0.1882
vn -0.7946 -0.5803 -0.1786
vn -0.4108 -0.8926 0.1858
vn -0.4182 -0.8847 -0.2058
vn -0.4988 -0.4985 0.7090
vn -0.9456 -0.3250 0.0165
vn -0.6252 0.4749 0.6194
vn -0.5779 0.5588 0.5948
vn -0.3555 0.7873 0.5038
vn 0.3099 0.9053 0.2906
vn 0.2318 0.9587 0.1651
vn 0.1121 0.9052 0.4099
vn -0.0676 0.9976 -0.0179
vn -0.1585 0.9373 0.3104
vn -0.2145 0.8040 0.5546
vn -0.1930 0.8720 0.4500
vn 0.0172 0.7900 0.6128
vn 0.0488 0.6313 0.7740
vn -0.1375 0.5695 0.8104
vn -0.1777 0.7173 0.6738
vn 0.0253 0.9546 0.2968
vn 0.2944 0.8646 0.4073
vn 0.0642 0.9954 -0.0716
vn 0.3377 0.9318 -0.1331
vn 0.5380 0.7427 0.3986
vn 0.5658 0.8151 -0.1243
vn 0.1515 0.7612 -0.6306
vn 0.4798 0.6739 -0.5618
vn 0.1521 0.8957 -0.4178
vn 0.1515 0.7932 -0.5898
vn 0.0279 0.9511 -0.3075
vn 0.2494 0.4669 -0.8484
vn 0.1546 0.4741 -0.8668
vn 0.2340 0.3778 -0.8958
vn 0.2133 0.3670 -0.9054
vn 0.5135 0.3877 -0.7655
vn 0.4458 0.1868 -0.8754
vn 0.1800 0.5282 -0.8299
vn 0.6360 0.2848 -0.7172
vn 0.5598 0.5474 -0.6221
vn -0.1382 0.2604 -0.9556
vn -0.2021 0.5312 -0.8228
vn -0.0477 0.7189 -0.6935
vn -0.0979 0.5944 -0.7982
vn -0.4931 0.3124 -0.8120
vn -0.5454 0.1310 -0.8279
vn 0.2906 0.7069 -0.6449
vn 0.1596 0.5956 -0.7872
vn 0.2091 -0.1637 -0.9641
vn 0.0579 -0.3793 -0.9235
vn 0.5267 -0.0968 -0.8445
vn -0.4274 -0.5283 -0.7336
vn -0.7239 0.0103 -0.6899
vn 0.3038 -0.1052 -0.9469
vn 0.5308 0.2455 -0.8112
vn 0.3048 0.2053 -0.9300
vn 0.3632 0.4410 -0.8207
vn 0.1148 -0.5101 -0.8524
vn 0.2526 0.9271 -0.2769
vn 0.9143 0.3889 -0.1128
vn 0.8476 0.3703 0.3801
vn 0.0928 0.4123 0.9063
vn 0.3470 0.4469 0.8246
vn 0.4110 0.8987 -0.1533
vn 0.3505 0.9313 -0.0994
vn -0.6306 0.6278 -0.4563
vn 0.3642 0.6244 -0.6911
vn 0.3415 0.8313 -0.4385
vn 0.5875 0.6465 -0.4867
vn 0.4560 0.8136 -0.3607
vn -0.5603 0.2294 -0.7959
vn -0.5797 -0.1155 -0.8066
vn -0.2703 -0.7133 -0.6467
vn -0.4746 -0.6723 -0.5681
vn -0.5456 -0.7155 -0.4363
vn -0.7235 -0.5934 -0.3528
vn -0.8167 -0.4831 -0.3156
vn -0.5985 -0.6053 -0.5249
vn -0.6148 -0.7694 -0.1734
vn -0.7028 -0.6755 -0.2230
vn -0.4367 -0.8996 0.0063
vn -0.5366 -0.8251 -0.1766
vn -0.0993 -0.9862 0.1321
vn -0.1763 -0.9778 -0.1129
vn -0.1572 -0.8650 -0.4765
vn -0.4496 -0.7067 -0.5463
vn -0.1611 -0.6569 -0.7366
vn -0.6490 -0.5194 -0.5558
vn -0.5932 -0.2202 -0.7744
vn 0.2225 -0.8507 -0.4763
vn 0.2424 -0.6523 -0.7182
vn 0.5100 -0.6779 -0.5295
vn 0.2602 -0.9610 -0.0938
vn 0.2882 -0.9210 0.2621
vn 0.5144 -0.8350 0.1957
vn 0.4415 -0.7644 0.4699
vn 0.4182 -0.8847 -0.2058
vn 0.5768 -0.7951 -0.1874
vn 0.5718 -0.7998 0.1826
vn 0.4008 -0.8964 0.1893
vn 0.7998 -0.5718 0.1826
vn 0.7904 -0.5879 -0.1722
vn 0.4976 -0.7104 0.4976
vn 0.7104 -0.4976 0.4976
vn 0.4988 -0.4985 0.7090
vn 0.5741 -0.1815 0.7984
vn 0.7942 -0.1886 0.5777
vn 0.5777 0.1886 0.7942
vn 0.7957 0.1795 0.5784
vn 0.4976 0.4976 0.7104
vn 0.7053 0.4896 0.5127
vn 0.4933 0.6998 0.5166
vn 0.8847 -0.2058 0.4182
vn 0.8943 0.1818 0.4089
vn 0.4031 -0.1872 0.8958
vn 0.4182 0.2058 0.8847
vn 0.7199 -0.6661 -0.1949
vn 0.9124 -0.3893 -0.1265
vn 0.3994 0.4301 -0.8096
vn 0.5416 0.3949 0.7421
vn -0.7798 -0.2964 -0.5514
vn 0.2544 0.6178 -0.7440
s 1
f 4//4 3//3 2//2 1//1
f 1//1 2//2 6//6 5//5
f 6//6 2//2 8//8 7//7
f 7//7 8//8 10//10 9//9
f 12//12 7//7 9//9 11//11
f 14//14 13//13 12//12 11//11
f 16//16 13//13 14//14 15//15
f 17//17 16//16 15//15
f 16//16 17//17 18//18
f 20//20 13//13 16//16 19//19
f 22//22 21//21 20//20 19//19
f 22//22 19//19 23//23
f 25//25 24//24 22//22 23//23
f 26//26 24//24 25//25
f 28//28 27//27 24//24 26//26
f 30//30 29//29 28//28 26//26
f 29//29 33//33 32//32 31//31
f 28//28 29//29 31//31
f 32//32 5//5 31//31
f 35//35 29//29 30//30 34//34
f 37//37 35//35 34//34 36//36
f 39//39 38//38 25//25 23//23
f 24//24 27//27 21//21 22//22
f 42//42 41//41 40//40 15//15
f 14//14 42//42 15//15
f 40//40 41//41 43//43
f 43//43 41//41 45//45 44//44
f 41//41 42//42 46//46 45//45
f 42//42 49//49 48//48 47//47
f 46//46 42//42 47//47
f 49//49 51//51 50//50 48//48
f 53//53 51//51 49//49 52//52
f 48//48 50//50 55//55 54//54
f 56//56 48//48 54//54
f 55//55 57//57 54//54
f 55//55 60//60 59//59 58//58
f 57//57 55//55 58//58
f 61//61 57//57 58//58
f 63//63 61//61 58//58 62//62
f 65//65 61//61 63//63 64//64
f 67//67 66//66 65//65 64//64
f 69//69 66//66 67//67 68//68
f 71//71 70//70 69//69 68//68
f 73//73 70//70 71//71 72//72
f 75//75 73//73 72//72 74//74
f 77//77 76//76 75//75 74//74
f 79//79 76//76 77//77 78//78
f 81//81 80//80 79//79 78//78
f 83//83 80//80 81//81 82//82
f 85//85 84//84 83//83 82//82
f 87//87 86//86 84//84 85//85
f 89//89 86//86 87//87 88//88
f 91//91 90//90 89//89 88//88
f 92//92 91//91 88//88
f 91//91 92//92 93//93
f 91//91 94//94 90//90
f 90//90 96//96 95//95 89//89
f 98//98 92//92 88//88 97//97
f 99//99 98//98 97//97
f 99//99 102//102 101//101 100//100
f 98//98 99//99 100//100
f 104//104 101//101 102//102 103//103
f 106//106 105//105 101//101 104//104
f 107//107 106//106 104//104
f 109//109 108//108 106//106 107//107
f 111//111 108//108 109//109 110//110
f 113//113 112//112 111//111 110//110
f 114//114 113//113 110//110
f 113//113 114//114 115//115
f 117//117 116//116 113//113 115//115
f 118//118 117//117 115//115
f 120//120 119//119 117//117 118//118
f 122//122 119//119 120//120 121//121
f 124//124 123//123 122//122 121//121
f 126//126 123//123 124//124 125//125
f 128//128 126//126 125//125 127//127
f 130//130 128//128 127//127 129//129
f 132//132 131//131 130//130 129//129
f 133//133 132//132 129//129
f 132//132 133//133 134//134
f 136//136 135//135 132//132 134//134
f 137//137 136//136 134//134
f 139//139 138//138 135//135 136//136
f 140//140 139//139 136//136
f 142//142 140//140 136//136 141//141
f 59//59 143//143 140//140 142//142
f 144//144 138//138 139//139
f 140//140 143//143 145//145 139//139
f 146//146 137//137 134//134
f 137//137 146//146 148//148 147//147
f 148//148 151//151 150//150 149//149
f 147//147 148//148 149//149
f 151//151 148//148 153//153 152//152
f 153//153 155//155 154//154 152//152
f 157//157 156//156 155//155 153//153
f 156//156 157//157 158//158
f 160//160 159//159 156//156 158//158
f 162//162 161//161 159//159 160//160
f 163//163 161//161 162//162
f 165//165 161//161 163//163 164//164
f 165//165 164//164 166//166
f 168//168 167//167 165//165 166//166
f 169//169 168//168 166//166
f 168//168 169//169 170//170
f 154//154 168//168 170//170 171//171
f 170//170 173//173 172//172 171//171
f 174//174 169//169 166//166
f 176//176 175//175 160//160 158//158
f 156//156 159//159 167//167 155//155
f 152//152 154//154 171//171
f 155//155 167//167 168//168 154//154
f 150//150 177//177 149//149
f 150//150 180//180 179//179 178//178
f 177//177 150//150 178//178
f 179//179 180//180 182//182 181//181
f 181//181 182//182 184//184 183//183
f 182//182 185//185 184//184
f 186//186 181//181 183//183
f 188//188 187//187 186//186 183//183
f 189//189 188//188 183//183
f 187//187 191//191 190//190 186//186
f 191//191 193//193 192//192 178//178
f 190//190 191//191 178//178
f 195//195 192//192 193//193 194//194
f 193//193 196//196 194//194
f 198//198 191//191 187//187 197//197
f 200//200 199//199 198//198 197//197
f 188//188 189//189 202//202 201//201
f 189//189 204//204 203//203 202//202
f 203//203 206//206 205//205 202//202
f 197//197 187//187 188//188 207//207
f 184//184 204//204 189//189 183//183
f 182//182 180//180 208//208 103//103
f 185//185 182//182 103//103
f 190//190 179//179 181//181 186//186
f 179//179 190//190 178//178
f 192//192 177//177 178//178
f 195//195 210//210 209//209 149//149
f 177//177 192//192 195//195 149//149
f 209//209 210//210 141//141
f 211//211 210//210 195//195
f 209//209 147//147 149//149
f 132//132 135//135 131//131
f 144//144 212//212 130//130 131//131
f 138//138 144//144 131//131
f 144//144 214//214 213//213 212//212
f 214//214 216//216 215//215 213//213
f 217//217 216//216 214//214 145//145
f 218//218 216//216 217//217
f 220//220 219//219 218//218 217//217
f 222//222 221//221 220//220 217//217
f 218//218 219//219 223//223
f 219//219 224//224 223//223
f 224//224 226//226 225//225 223//223
f 228//228 226//226 224//224 227//227
f 226//226 228//228 230//230 229//229
f 231//231 226//226 229//229
f 233//233 231//231 229//229 232//232
f 225//225 231//231 233//233 215//215
f 229//229 235//235 234//234 232//232
f 234//234 235//235 237//237 236//236
f 238//238 234//234 236//236
f 238//238 236//236 240//240 239//239
f 241//241 238//238 239//239
f 238//238 241//241 242//242
f 240//240 245//245 244//244 243//243
f 239//239 240//240 243//243
f 246//246 244//244 245//245
f 246//246 37//37 248//248 247//247
f 244//244 246//246 247//247
f 240//240 250//250 249//249 245//245
f 239//239 243//243 252//252 251//251
f 253//253 239//239 251//251
f 243//243 247//247 255//255 254//254
f 252//252 243//243 254//254
f 256//256 253//253 251//251
f 258//258 257//257 253//253 256//256
f 257//257 258//258 259//259
f 252//252 260//260 251//251
f 261//261 233//233 232//232
f 263//263 262//262 228//228 227//227
f 221//221 222//222 60//60
f 221//221 264//264 220//220
f 264//264 265//265 220//220
f 233//233 261//261 266//266 213//213
f 215//215 233//233 213//213
f 218//218 223//223 225//225 215//215
f 216//216 218//218 215//215
f 176//176 133//133 129//129
f 212//212 267//267 128//128 130//130
f 127//127 175//175 176//176 129//129
f 125//125 268//268 175//175 127//127
f 270//270 269//269 123//123 126//126
f 271//271 269//269 270//270
f 272//272 271//271 270//270 267//267
f 266//266 272//272 267//267
f 271//271 272//272 242//242
f 124//124 268//268 125//125
f 259//259 258//258 119//119 122//122
f 120//120 273//273 121//121
f 274//274 273//273 120//120 118//118
f 256//256 251//251 260//260 116//116
f 117//117 256//256 116//116
f 116//116 260//260 112//112
f 274//274 118//118 115//115
f 115//115 114//114 174//174 166//166
f 164//164 274//274 115//115 166//166
f 113//113 116//116 112//112
f 275//275 108//108 111//111
f 173//173 109//109 107//107
f 277//277 276//276 105//105 106//106
f 278//278 276//276 277//277
f 280//280 279//279 278//278 277//277
f 278//278 279//279 282//282 281//281
f 282//282 284//284 283//283 281//281
f 283//283 284//284 286//286 285//285
f 284//284 288//288 287//287 286//286
f 288//288 289//289 287//287
f 36//36 289//289 288//288 290//290
f 291//291 36//36 290//290
f 289//289 293//293 292//292 287//287
f 293//293 294//294 292//292
f 292//292 294//294 38//38 295//295
f 286//286 295//295 296//296 285//285
f 296//296 298//298 297//297 96//96
f 285//285 296//296 96//96
f 297//297 298//298 18//18
f 39//39 298//298 296//296
f 290//290 288//288 284//284 282//282
f 283//283 94//94 281//281
f 172//172 173//173 107//107 104//104
f 102//102 185//185 103//103
f 208//208 172//172 104//104 103//103
f 101//101 105//105 100//100
f 102//102 99//99 204//204 184//184
f 185//185 102//102 184//184
f 300//300 299//299 86//86 89//89
f 95//95 300//300 89//89
f 302//302 299//299 300//300 301//301
f 300//300 304//304 303//303 301//301
f 301//301 303//303 306//306 305//305
f 306//306 307//307 305//305
f 306//306 309//309 308//308 307//307
f 309//309 311//311 310//310 308//308
f 311//311 313//313 312//312 310//310
f 312//312 313//313 314//314
f 316//316 311//311 309//309 315//315
f 310//310 318//318 317//317 308//308
f 95//95 319//319 304//304 300//300
f 88//88 87//87 206//206 203//203
f 97//97 88//88 203//203
f 206//206 87//87 85//85
f 84//84 299//299 302//302 83//83
f 205//205 206//206 85//85 82//82
f 302//302 80//80 83//83
f 81//81 205//205 82//82
f 302//302 301//301 305//305 79//79
f 80//80 302//302 79//79
f 78//78 77//77 207//207 201//201
f 307//307 308//308 317//317 75//75
f 76//76 307//307 75//75
f 74//74 200//200 197//197 207//207
f 77//77 74//74 207//207
f 317//317 73//73 75//75
f 72//72 200//200 74//74
f 317//317 318//318 70//70 73//73
f 71//71 199//199 200//200 72//72
f 199//199 71//71 68//68
f 310//310 312//312 66//66 69//69
f 318//318 310//310 69//69
f 68//68 67//67 196//196 198//198
f 199//199 68//68 198//198
f 66//66 312//312 314//314 65//65
f 196//196 67//67 64//64 194//194
f 58//58 59//59 142//142 62//62
f 316//316 46//46 47//47
f 48//48 56//56 47//47
f 45//45 46//46 316//316 315//315
f 40//40 320//320 15//15
f 320//320 17//17 15//15
f 9//9 10//10 53//53 52//52
f 32//32 321//321 1//1 5//5
f 4//4 1//1 321//321 237//237
f 235//235 4//4 237//237
f 262//262 3//3 230//230 228//228
f 2//2 3//3 262//262 8//8
f 21//21 6//6 7//7 12//12
f 20//20 21//21 12//12
f 322//322 263//263 227//227
f 10//10 263//263 322//322 53//53
f 9//9 52//52 11//11
f 230//230 4//4 235//235 229//229
f 321//321 250//250 237//237
f 226//226 231//231 225//225
f 227//227 224//224 219//219 220//220
f 265//265 322//322 227//227 220//220
f 51//51 265//265 264//264 50//50
f 45//45 315//315 44//44
f 255//255 323//323 279//279 280//280
f 254//254 255//255 280//280
f 323//323 255//255 248//248 291//291
f 275//275 254//254 280//280
f 213//213 266//266 267//267 212//212
f 105//105 276//276 93//93 100//100
f 143//143 222//222 217//217 145//145
f 211//211 63//63 62//62
f 33//33 324//324 249//249
f 324//324 33//33 29//29 35//35
f 34//34 30//30 294//294 293//293
f 321//321 32//32 33//33 249//249
f 250//250 321//321 249//249
f 27//27 28//28 31//31
f 294//294 30//30 26//26 25//25
f 38//38 294//294 25//25
f 8//8 262//262 263//263 10//10
f 13//13 20//20 12//12
f 23//23 19//19 16//16 18//18
f 298//298 39//39 23//23 18//18
f 249//249 324//324 246//246 245//245
f 246//246 324//324 35//35 37//37
f 36//36 34//34 293//293 289//289
f 237//237 250//250 240//240 236//236
f 287//287 292//292 295//295 286//286
f 96//96 297//297 319//319 95//95
f 243//243 244//244 247//247
f 248//248 255//255 247//247
f 323//323 291//291 290//290
f 279//279 323//323 290//290 282//282
f 281//281 94//94 91//91 93//93
f 276//276 278//278 281//281 93//93
f 242//242 241//241 257//257 259//259
f 269//269 271//271 242//242 259//259
f 253//253 257//257 241//241 239//239
f 248//248 37//37 36//36 291//291
f 261//261 272//272 266//266
f 295//295 38//38 39//39 296//296
f 145//145 214//214 144//144 139//139
f 50//50 264//264 221//221 60//60
f 55//55 50//50 60//60
f 303//303 304//304 43//43 44//44
f 123//123 269//269 259//259 122//122
f 119//119 258//258 256//256 117//117
f 252//252 254//254 275//275 111//111
f 112//112 260//260 252//252 111//111
f 267//267 270//270 126//126 128//128
f 275//275 280//280 277//277 106//106
f 108//108 275//275 106//106
f 135//135 138//138 131//131
f 211//211 62//62 142//142 141//141
f 210//210 211//211 141//141
f 205//205 81//81 78//78 201//201
f 202//202 205//205 201//201
f 121//121 273//273 163//163 162//162
f 268//268 124//124 121//121 162//162
f 163//163 273//273 274//274 164//164
f 174//174 114//114 110//110
f 159//159 161//161 165//165 167//167
f 134//134 133//133 176//176 158//158
f 157//157 146//146 134//134 158//158
f 148//148 146//146 157//157 153//153
f 208//208 151//151 152//152 171//171
f 172//172 208//208 171//171
f 3//3 4//4 230//230
f 6//6 21//21 27//27 31//31
f 5//5 6//6 31//31
f 320//320 319//319 297//297 18//18
f 17//17 320//320 18//18
f 322//322 265//265 51//51 53//53
f 49//49 42//42 14//14 11//11
f 52//52 49//49 11//11
f 319//319 320//320 40//40 43//43
f 304//304 319//319 43//43
f 313//313 56//56 54//54 314//314
f 313//313 311//311 316//316 47//47
f 56//56 313//313 47//47
f 309//309 306//306 303//303 44//44
f 315//315 309//309 44//44
f 232//232 234//234 238//238 242//242
f 272//272 261//261 232//232 242//242
f 283//283 285//285 96//96 90//90
f 94//94 283//283 90//90
f 60//60 222//222 143//143 59//59
f 86//86 299//299 84//84
f 54//54 57//57 61//61 65//65
f 314//314 54//54 65//65
f 70//70 318//318 69//69
f 305//305 307//307 76//76 79//79
f 175//175 268//268 162//162 160//160
f 110//110 109//109 173//173 170//170
f 169//169 174//174 110//110 170//170
f 93//93 92//92 98//98 100//100
f 141//141 136//136 137//137 147//147
f 209//209 141//141 147//147
f 150//150 151//151 208//208 180//180
f 204//204 99//99 97//97 203//203
f 63//63 211//211 195//195 194//194
f 64//64 63//63 194//194
f 196//196 193//193 191//191 198//198
f 207//207 188//188 201//201
